HIERARCHY
ROOT Hips
{
    OFFSET 0.000000 0.000000 0.000000
    CHANNELS 6 Xposition Yposition Zposition Zrotation Xrotation Yrotation
    JOINT Spine
    {
        OFFSET -0.000000 7.236184 0.000000
        CHANNELS 3 Zrotation Xrotation Yrotation
        JOINT Spine1
        {
            OFFSET -0.000000 20.420147 0.000000
            CHANNELS 3 Zrotation Xrotation Yrotation
            JOINT Neck
            {
                OFFSET -0.000000 20.336288 1.848754
                CHANNELS 3 Zrotation Xrotation Yrotation
                JOINT Head
                {
                    OFFSET -0.000000 12.354461 -1.764923
                    CHANNELS 3 Zrotation Xrotation Yrotation
                    End Site
                    {
                        OFFSET -0.000000 22.061537 0.000000
                    }
                }
            }
            JOINT LeftShoulder
            {
                OFFSET 3.573296 18.396038 -0.314103
                CHANNELS 3 Zrotation Xrotation Yrotation
                JOINT LeftArm
                {
                    OFFSET 10.880760 0.000000 0.000000
                    CHANNELS 3 Zrotation Xrotation Yrotation
                    JOINT LeftForeArm
                    {
                        OFFSET 27.185530 0.000000 0.000000
                        CHANNELS 3 Zrotation Xrotation Yrotation
                        JOINT LeftHand
                        {
                            OFFSET 27.825975 0.000000 0.000000
                            CHANNELS 3 Zrotation Xrotation Yrotation
                            End Site
                            {
                                OFFSET 13.236923 0.000000 0.000000
                            }
                        }
                    }
                }
            }
            JOINT RightShoulder
            {
                OFFSET -3.474926 18.396038 -0.314103
                CHANNELS 3 Zrotation Xrotation Yrotation
                JOINT RightArm
                {
                    OFFSET -10.880760 0.000000 0.000000
                    CHANNELS 3 Zrotation Xrotation Yrotation
                    JOINT RightForeArm
                    {
                        OFFSET -27.185530 0.000000 0.000000
                        CHANNELS 3 Zrotation Xrotation Yrotation
                        JOINT RightHand
                        {
                            OFFSET -27.825975 0.000000 0.000000
                            CHANNELS 3 Zrotation Xrotation Yrotation
                            End Site
                            {
                                OFFSET -13.236923 0.000000 0.000000
                            }
                        }
                    }
                }
            }
        }
    }
    JOINT LeftUpLeg
    {
        OFFSET 8.824615 0.000000 0.000000
        CHANNELS 3 Zrotation Xrotation Yrotation
        JOINT LeftLeg
        {
            OFFSET -0.000000 -35.111282 0.000000
            CHANNELS 3 Zrotation Xrotation Yrotation
            JOINT LeftFoot
            {
                OFFSET -0.000000 -42.324711 0.000000
                CHANNELS 3 Zrotation Xrotation Yrotation
                JOINT LeftToeBase
                {
                    OFFSET -0.000000 -5.735999 13.236923
                    CHANNELS 3 Zrotation Xrotation Yrotation
                    End Site
                    {
                        OFFSET -0.000000 0.000000 3.529846
                    }
                }
            }
        }
    }
    JOINT RightUpLeg
    {
        OFFSET -8.824615 0.000000 0.000000
        CHANNELS 3 Zrotation Xrotation Yrotation
        JOINT RightLeg
        {
            OFFSET -0.000000 -35.111282 0.000000
            CHANNELS 3 Zrotation Xrotation Yrotation
            JOINT RightFoot
            {
                OFFSET -0.000000 -42.324711 0.000000
                CHANNELS 3 Zrotation Xrotation Yrotation
                JOINT RightToeBase
                {
                    OFFSET -0.000000 -5.735999 13.236923
                    CHANNELS 3 Zrotation Xrotation Yrotation
                    End Site
                    {
                        OFFSET -0.000000 0.000000 3.529846
                    }
                }
            }
        }
    }
}
MOTION
Frames:    8
Frame Time:    0.008333
-1.337726    83.458153    104.476631    -1.848555    -12.475943    -178.276245    -1.598898    -17.291502    1.350934    -0.536106    7.395947    1.628747    1.226617    6.491622    -2.612884    6.439160    -4.385491    -1.669573    0.755010    17.894896    -1.982894    -46.384003    44.529415    -38.005665    0.432957    -9.535069    -15.034342    21.078306    -8.785326    3.773527    8.346559    22.213684    -6.025457    40.390976    42.502369    35.014095    -4.363105    -10.390040    19.134825    -17.529726    -9.151659    -3.377287    2.813216    -17.304762    -3.090867    -0.210624    13.894011    4.961551    0.162758    -4.874873    -1.099790    16.021891    -23.125645    -18.684910    -11.510060    -9.105049    -2.126684    2.125371    2.344238    -1.426310    6.418285    -3.246274    -9.775570    -1.092709    0.072621    1.181726    
-1.361511    83.449921    104.441666    -1.818741    -12.458463    -178.210770    -1.593934    -17.318899    1.373346    -0.533986    7.452109    1.650897    1.260084    6.503314    -2.660336    6.447699    -4.387748    -1.720204    0.789053    17.906574    -1.952934    -46.583126    44.499241    -37.851734    0.402271    -9.506219    -15.012359    20.968927    -8.774207    3.718691    8.386538    22.233883    -6.090310    40.425274    42.627842    34.943504    -4.353008    -10.358392    19.355314    -17.204367    -9.148154    -3.207351    2.798814    -17.387650    -3.078230    -0.188743    14.087565    4.933408    -0.604512    -5.376507    -2.379004    14.619947    -19.264261    -16.873951    -11.502445    -9.027125    -2.160131    2.122743    2.313935    -1.465240    6.443533    -3.263731    -9.763339    -1.091914    0.062387    1.180883    
-1.385083    83.441910    104.406967    -1.789850    -12.441108    -178.146362    -1.591500    -17.345667    1.394252    -0.527549    7.506929    1.671613    1.288679    6.514353    -2.706989    6.457839    -4.388621    -1.769386    0.816930    17.917597    -1.921592    -46.779034    44.468712    -37.696114    0.371939    -9.477932    -14.989721    20.861635    -8.763157    3.665417    8.423394    22.253876    -6.153447    40.459370    42.752098    34.876583    -4.344818    -10.325501    19.565598    -16.880138    -9.142078    -3.040226    2.784187    -17.466763    -3.065356    -0.166868    14.274408    4.905443    -1.306047    -5.850210    -3.671813    12.997922    -15.604686    -14.868198    -11.495390    -8.950391    -2.193758    2.120210    2.284775    -1.501910    6.468260    -3.281409    -9.752169    -1.091037    0.052203    1.179951    
-1.408517    83.434196    104.372391    -1.762297    -12.423745    -178.083145    -1.592842    -17.371223    1.412769    -0.514685    7.559576    1.690108    1.308995    6.523983    -2.752810    6.471422    -4.386027    -1.816491    0.834799    17.927330    -1.887451    -46.971424    44.438122    -37.535999    0.341734    -9.450602    -14.966116    20.756905    -8.752282    3.615235    8.455076    22.273758    -6.213749    40.493519    42.875324    34.815361    -4.338171    -10.290403    19.759989    -16.556089    -9.132819    -2.875853    2.769294    -17.539774    -3.051925    -0.145411    14.451075    4.877533    -1.920422    -6.280844    -4.916666    11.258655    -12.334488    -12.783959    -11.489386    -8.874940    -2.228222    2.117843    2.257523    -1.534486    6.492375    -3.299786    -9.743044    -1.090059    0.042393    1.178910    
-1.431778    83.426872    104.338013    -1.736559    -12.406531    -178.021545    -1.597744    -17.395845    1.428693    -0.496381    7.609885    1.706149    1.320627    6.531954    -2.797589    6.488731    -4.379016    -1.861353    0.842064    17.936077    -1.850631    -47.160217    44.406540    -37.370567    0.311827    -9.424391    -14.940551    20.655359    -8.741553    3.569182    8.481826    22.293436    -6.270503    40.527519    42.996552    34.761063    -4.332420    -10.251931    19.934374    -16.235754    -9.119042    -2.716514    2.754210    -17.604504    -3.037744    -0.124909    14.613549    4.850535    -2.439873    -6.659475    -6.064980    9.518419    -9.556905    -10.744597    -11.484816    -8.801461    -2.264274    2.115553    2.232874    -1.561563    6.515675    -3.318952    -9.736241    -1.088945    0.032771    1.177720    
-1.455014    83.419975    104.303566    -1.712727    -12.389440    -177.961304    -1.605057    -17.420036    1.442371    -0.475366    7.658306    1.720120    1.325402    6.539059    -2.841599    6.509179    -4.368328    -1.904406    0.840470    17.944231    -1.811030    -47.346901    44.372948    -37.199135    0.281795    -9.399234    -14.911796    20.556807    -8.730924    3.527560    8.504859    22.312853    -6.324100    40.561897    43.115391    34.713737    -4.326191    -10.208241    20.088440    -15.922009    -9.098845    -2.564629    2.738892    -17.659843    -3.022825    -0.105574    14.760278    4.824551    -2.870990    -6.986487    -7.095195    7.862862    -7.271535    -8.834990    -11.481730    -8.729847    -2.302667    2.113007    2.211178    -1.582923    6.538206    -3.339091    -9.731350    -1.087505    0.023227    1.176179    
-1.478133    83.413551    104.269173    -1.691166    -12.372431    -177.902924    -1.613791    -17.443884    1.454231    -0.454273    7.704823    1.732443    1.325018    6.545361    -2.884774    6.532192    -4.353893    -1.945913    0.832023    17.952358    -1.770030    -47.531204    44.335979    -37.022594    0.251802    -9.375225    -14.878839    20.461721    -8.720339    3.490970    8.525829    22.331839    -6.374313    40.596081    43.230465    34.673203    -4.318643    -10.159015    20.221424    -15.621840    -9.071486    -2.423960    2.723497    -17.704393    -3.007562    -0.087951    14.888895    4.800900    -3.220927    -7.262501    -7.991714    6.365309    -5.450374    -7.127020    -11.480352    -8.660494    -2.343164    2.110220    2.192749    -1.598590    6.559712    -3.360066    -9.728172    -1.085789    0.014146    1.174337    
-1.501328    83.407570    104.234505    -1.671794    -12.355400    -177.846039    -1.623251    -17.468075    1.464810    -0.434803    7.750277    1.743630    1.321019    6.550933    -2.927583    6.557262    -4.335672    -1.986575    0.818232    17.960987    -1.727455    -47.714622    44.294643    -36.840538    0.221718    -9.352187    -14.840541    20.369524    -8.709637    3.459660    8.545717    22.350584    -6.421956    40.629845    43.342857    34.639500    -4.308941    -10.104507    20.334896    -15.337680    -9.037296    -2.295487    2.708094    -17.737892    -2.992178    -0.072378    14.999379    4.779899    -3.503116    -7.493736    -8.761307    5.050596    -4.016325    -5.639652    -11.480574    -8.593001    -2.386158    2.106816    2.177598    -1.609429    6.580446    -3.381995    -9.725740    -1.083796    0.005293    1.172196    
